<svg xmlns="http://www.w3.org/2000/svg" xmlns:xlink="http://www.w3.org/1999/xlink" version="1.1" x="0px" y="0px" viewBox="0 0 50 62.5" style="enable-background:new 0 0 50 50;" xml:space="preserve"><style type="text/css">
	.st0{fill:none;stroke:#000000;stroke-width:2;stroke-miterlimit:10;}
</style><path d="M47.1,21.4c-6.6,3.6-10.2,1-10.4,0.9c-7-5-12.6-6.1-15-6.4c0.2-1,0.1-2,0-3c-0.6-3.3-3.3-5.9-6.6-6.6  C12.5,5.8,9.9,6.5,8,8.1c-1.6,1.3-2.6,3.1-2.9,5H1v2h4l0.1,1c0.6,9.1,4.2,15.7,10.6,19.6c2.2,1.4,4.6,2.3,7.1,2.7v3.4h-3v2h12.9v-2  h-3v-3.2c5.8-0.7,11.3-3.6,15-8.5c3-4,3.8-7.6,3.8-7.7l0.4-2.1L47.1,21.4z M10.9,13.5c0-1.1,0.9-2,2-2s2,0.9,2,2c0,1.1-0.9,2-2,2  S10.9,14.6,10.9,13.5z M27.8,41.9h-3v-3.1c0.8,0.1,1.5,0.1,2.3,0.1c0.2,0,0.5,0,0.7,0V41.9z M33.1,32.9c-1.9,0.7-3.9,1.1-6,1.1  c-3.1,0-6.2-0.8-8.8-2.4c-2.2-1.3-3.9-3.1-5.3-5.3l1.7-1c1.2,1.9,2.7,3.5,4.6,4.6c3.8,2.3,8.7,2.8,13,1.2c1.8-0.7,3.4-1.6,4.8-2.9  l1.3,1.5C36.9,31.1,35.1,32.2,33.1,32.9z" fill="#f3f3f3"/></svg>