<svg xmlns="http://www.w3.org/2000/svg" xmlns:xlink="http://www.w3.org/1999/xlink" version="1.1" x="0px" y="0px" viewBox="0 0 32 40" enable-background="new 0 0 32 32" xml:space="preserve"><path d="M8.355,20.229c3.447,2.432,8.593,1.671,11.42-1.553c-0.581-0.223-1.095-0.574-1.512-1.021  c-0.012-0.013-0.029-0.018-0.04-0.033c-0.018-0.024-0.032-0.051-0.049-0.075c-0.245-0.281-0.454-0.592-0.614-0.933  c-0.003-0.004-0.005-0.009-0.007-0.013c-0.025-0.053-0.055-0.103-0.077-0.157c-0.126-0.231-0.24-0.468-0.347-0.708  c-0.125,0.01-0.24,0.034-0.371,0.034c-1.666,0-3.781-0.789-5.035-1.674c-1.133-0.8-2.043-1.817-2.724-2.962  c-0.022-0.032-0.042-0.064-0.056-0.1C8.209,9.764,7.759,8.34,7.663,6.843c-0.502,0.441-0.97,0.919-1.362,1.472  c-1.316,1.866-1.827,4.131-1.439,6.382C5.25,16.948,6.49,18.912,8.355,20.229z M7.241,11.469c0.273-0.014,0.517,0.183,0.538,0.458  c0.086,1.059,0.92,2.332,2.229,3.407c1.657,1.359,3.628,2.064,5.277,1.865c0.267-0.026,0.521,0.165,0.555,0.439  c0.031,0.274-0.165,0.522-0.439,0.555c-0.215,0.024-0.434,0.037-0.656,0.037c-1.756,0-3.717-0.768-5.37-2.124  c-1.516-1.243-2.484-2.775-2.592-4.1C6.761,11.732,6.966,11.491,7.241,11.469z M6.216,13.798c0.271-0.016,0.517,0.183,0.538,0.458  c0.086,1.059,0.92,2.332,2.229,3.407c1.657,1.359,3.627,2.064,5.277,1.865c0.268-0.03,0.521,0.164,0.555,0.439  c0.031,0.274-0.165,0.522-0.439,0.555c-0.215,0.024-0.434,0.037-0.656,0.037c-1.756,0-3.717-0.768-5.37-2.124  c-1.516-1.243-2.484-2.775-2.592-4.1C5.735,14.062,5.94,13.82,6.216,13.798z" fill="#f3f3f3"/>
<path d="M26.571,15.935c-0.157,0.034-0.321,0.067-0.449,0.091c-0.182,0.035-0.362,0.071-0.547,0.115  c-0.118,0.031-0.236,0.038-0.357,0.018c-0.373-0.062-0.595-0.33-0.562-0.531c0.029-0.174,0.255-0.333,0.556-0.333  c0.048,0,0.099,0.004,0.151,0.013c0.098,0.016,0.191,0.049,0.252,0.085c0.144,0.093,0.337,0.2,0.542,0.312  C26.271,15.766,26.425,15.85,26.571,15.935z" fill="#f3f3f3"/>
<path d="M11.337,12.336c-0.488-0.472-0.918-0.992-1.275-1.555c1.091-2.96,3.671-5.067,6.807-5.513  c0.675-0.097,1.353-0.104,2.026-0.04c-1.994,2.124-2.928,5.016-2.512,7.949c0.072,0.508,0.199,1.004,0.35,1.491  c-0.438,0-0.922-0.07-1.417-0.189c-0.764-2.531-0.49-5.359,0.655-6.617c0.204-0.224,0.188-0.573-0.037-0.778  c-0.224-0.203-0.573-0.188-0.778,0.036c-1.294,1.423-1.702,4.256-1.074,6.972c-0.569-0.223-1.097-0.493-1.538-0.78  c-0.001-0.024,0.006-0.046,0.001-0.07c-0.277-1.532-0.139-2.898,0.379-3.749c0.158-0.259,0.076-0.597-0.184-0.755  c-0.258-0.159-0.597-0.077-0.755,0.184C11.459,9.788,11.246,10.979,11.337,12.336z" fill="#f3f3f3"/>
<path d="M21.216,11.958c-1.624,0-2.947,1.322-2.947,2.948c0,0.394,0.081,0.77,0.222,1.114c0.175,0.311,0.37,0.611,0.583,0.897  c0.538,0.572,1.296,0.935,2.141,0.935c1.053,0,2.016-0.569,2.54-1.465c-0.165-0.284-0.24-0.609-0.185-0.94  c0.063-0.371,0.276-0.679,0.571-0.9C24.039,13.06,22.823,11.958,21.216,11.958z M21.871,14.897c-0.338,0-0.612-0.289-0.612-0.645  c0-0.356,0.274-0.645,0.613-0.645c0.338,0,0.612,0.289,0.612,0.645C22.483,14.608,22.209,14.897,21.871,14.897z" fill="#f3f3f3"/>
<path d="M26.475,16.49c-0.495,1.442-1.038,2.665-1.085,2.766c-0.085,0.182-0.266,0.288-0.453,0.288  c-0.071,0-0.143-0.015-0.211-0.047c-0.251-0.117-0.358-0.414-0.242-0.664c0.011-0.023,0.403-0.887,0.861-2.199  C26.361,16.519,25.824,16.6,26.475,16.49z" fill="#f3f3f3"/>
<path d="M30.329,12.357c-0.073,0.17-0.258,0.604-1.616,1.117c-0.028,0.02-0.061,0.036-0.094,0.05  c-0.414,0.166-0.824,0.271-1.21,0.364l-0.211,0.052c-0.087,0.364-0.343,1.148-0.439,1.489c-0.382-0.163-0.594-0.318-0.89-0.429  c0.127-0.435,0.251-0.884,0.364-1.359l-0.284-0.122c-0.324-0.139-0.668-0.292-1.006-0.498c-0.027-0.017-0.052-0.035-0.075-0.057  c-1.124-0.654-1.223-1.066-1.267-1.249c-0.13-0.54,0.042-1.017,0.46-1.275c0.401-0.248,0.944-0.217,1.292,0.073  c0.299,0.252,0.573,0.577,1.201,1.537c0.068-0.407,0.124-0.818,0.166-1.231l-0.099-0.027c-0.345-0.097-0.713-0.204-1.074-0.364  c-0.028-0.013-0.055-0.027-0.08-0.044c-1.216-0.504-1.37-0.902-1.438-1.078c-0.201-0.522-0.094-1.021,0.288-1.335  c0.367-0.302,0.912-0.345,1.298-0.102c0.297,0.189,0.585,0.443,1.181,1.117c-0.003-0.113,0.001-0.227-0.004-0.339  c-1.201-1.683-1.47-2.155-1.618-2.63c-0.135-0.429,0.047-0.945,0.432-1.226c0.396-0.29,0.899-0.273,1.347,0.043  c0.152,0.106,0.497,0.35,0.667,1.642c0.01,0.029,0.018,0.06,0.022,0.091c0.06,0.388,0.067,0.765,0.07,1.118l0.001,0.07  c0.021,0.172,0.036,0.346,0.05,0.52c0.194-0.432,0.334-0.66,0.492-0.861c0.279-0.359,0.808-0.506,1.257-0.342  c0.465,0.167,0.734,0.602,0.719,1.161c-0.005,0.188-0.017,0.615-0.993,1.499c-0.018,0.023-0.038,0.047-0.061,0.068  c-0.288,0.273-0.598,0.497-0.891,0.703L27.721,10.9c-0.031,0.317-0.069,0.632-0.115,0.945c0.024-0.028,0.052-0.06,0.074-0.086  c0.496-0.58,0.681-0.797,1.015-0.993c0.418-0.245,0.997-0.182,1.379,0.154C30.469,11.269,30.564,11.806,30.329,12.357z" fill="#f3f3f3"/>
<path d="M21.216,18.952c-0.081,0-0.157-0.019-0.237-0.024c-1.899,2.47-4.941,3.822-7.952,3.822c-1.881,0-3.747-0.524-5.305-1.624  c-2.105-1.486-3.506-3.703-3.943-6.242c-0.075-0.437-0.11-0.874-0.126-1.31c-0.448-0.43-0.854-0.899-1.231-1.392  c-0.255,0.935-0.387,1.9-0.387,2.881c0,6.022,4.898,10.921,10.921,10.921c4.793,0,9.006-3.197,10.413-7.657  C22.735,18.726,21.993,18.952,21.216,18.952z M13.208,25.581l-0.45,0.002c-0.001,0-0.001,0-0.002,0c-0.275,0-0.499-0.223-0.5-0.498  c-0.001-0.276,0.222-0.501,0.498-0.502l0.45-0.002c0.001,0,0.001,0,0.002,0c0.275,0,0.499,0.223,0.5,0.498  C13.707,25.355,13.484,25.58,13.208,25.581z M13.208,24.212l-0.45,0.002c-0.001,0-0.001,0-0.002,0c-0.275,0-0.499-0.223-0.5-0.498  c-0.001-0.276,0.222-0.501,0.498-0.502l0.45-0.002c0.001,0,0.001,0,0.002,0c0.275,0,0.499,0.223,0.5,0.498  C13.707,23.986,13.484,24.211,13.208,24.212z" fill="#f3f3f3"/></svg>